<?xml version="1.0" encoding="UTF-8"?><!DOCTYPE svg PUBLIC "-//W3C//DTD SVG 1.1//EN" "http://www.w3.org/Graphics/SVG/1.1/DTD/svg11.dtd"><svg xmlns="http://www.w3.org/2000/svg" xmlns:xlink="http://www.w3.org/1999/xlink"><symbol id="github">
<symbol id="svg-github" viewBox="0 0 92 92">
	<path d="M61.896,52.548c-3.59,0-6.502,4.026-6.502,8.996c0,4.971,2.912,8.999,6.502,8.999
		c3.588,0,6.498-4.028,6.498-8.999C68.395,56.574,65.484,52.548,61.896,52.548z M84.527,29.132c0.74-1.826,0.777-12.201-3.17-22.132
		c0,0-9.057,0.993-22.76,10.396c-2.872-0.793-7.736-1.19-12.597-1.19s-9.723,0.396-12.598,1.189C19.699,7.993,10.645,7,10.645,7
		c-3.948,9.931-3.913,20.306-3.172,22.132C2.834,34.169,0,40.218,0,48.483c0,35.932,29.809,36.508,37.334,36.508
		c1.703,0,5.088,0.004,8.666,0.009c3.578-0.005,6.965-0.009,8.666-0.009C62.191,84.991,92,84.415,92,48.483
		C92,40.218,89.166,34.169,84.527,29.132z M46.141,80.574H45.86c-18.859,0-33.545-2.252-33.545-20.58
		c0-4.389,1.549-8.465,5.229-11.847c6.141-5.636,16.527-2.651,28.316-2.651c0.045,0,0.093-0.001,0.141-0.003
		c0.049,0.002,0.096,0.003,0.141,0.003c11.789,0,22.178-2.984,28.316,2.651c3.68,3.382,5.229,7.458,5.229,11.847
		C79.686,78.322,65,80.574,46.141,80.574z M30.104,52.548c-3.588,0-6.498,4.026-6.498,8.996c0,4.971,2.91,8.999,6.498,8.999
		c3.592,0,6.502-4.028,6.502-8.999C36.605,56.574,33.695,52.548,30.104,52.548z"/>
</symbol>
</symbol><symbol id="gmail">
    <symbol id="svg-gmail" viewBox="0 0 250.57 250.57">
        <path d="M23.032,220.285h204.506c12.7,0,23.032-10.333,23.032-23.034V53.318c0-12.701-10.332-23.033-23.032-23.033H23.032 C10.332,30.285,0,40.618,0,53.318v143.933C0,209.952,10.332,220.285,23.032,220.285z M15,53.318c0-4.436,3.601-8.033,8.032-8.033 h204.506c4.433,0,8.032,3.597,8.032,8.033v143.933c0,4.437-3.6,8.034-8.032,8.034H23.032c-4.432,0-8.032-3.597-8.032-8.034V53.318z M44.738,194.677h-15V56.529l93.674,60.815c1.102,0.715,2.643,0.716,3.748-0.002l93.673-60.813v138.148h-15V84.151l-70.507,45.774 c-2.992,1.941-6.464,2.966-10.041,2.966s-7.049-1.025-10.039-2.965L44.738,84.151V194.677z"/>
</symbol>
</symbol><symbol id="linkedin">
    <symbol id="svg-linkedin" viewBox="0 0 512 512">
        <path d="M186.4 142.4c0 19-15.3 34.5-34.2 34.5 -18.9 0-34.2-15.4-34.2-34.5 0-19 15.3-34.5 34.2-34.5C171.1 107.9 186.4 123.4 186.4 142.4zM181.4 201.3h-57.8V388.1h57.8V201.3zM273.8 201.3h-55.4V388.1h55.4c0 0 0-69.3 0-98 0-26.3 12.1-41.9 35.2-41.9 21.3 0 31.5 15 31.5 41.9 0 26.9 0 98 0 98h57.5c0 0 0-68.2 0-118.3 0-50-28.3-74.2-68-74.2 -39.6 0-56.3 30.9-56.3 30.9v-25.2H273.8z"/>
</symbol>
</symbol><symbol id="vk">
	<symbol id="svg-vk" viewBox="0 0 304.36 304.36">
		<path d="M261.945,175.576c10.096,9.857,20.752,19.131,29.807,29.982
			c4,4.822,7.787,9.798,10.684,15.394c4.105,7.955,0.387,16.709-6.746,17.184l-44.34-0.02c-11.436,0.949-20.559-3.655-28.23-11.474
			c-6.139-6.253-11.824-12.908-17.727-19.372c-2.42-2.642-4.953-5.128-7.979-7.093c-6.053-3.929-11.307-2.726-14.766,3.587
			c-3.523,6.421-4.322,13.531-4.668,20.687c-0.475,10.441-3.631,13.186-14.119,13.664c-22.414,1.057-43.686-2.334-63.447-13.641
			c-17.422-9.968-30.932-24.04-42.691-39.971C34.828,153.482,17.295,119.395,1.537,84.353C-2.01,76.458,0.584,72.22,9.295,72.07
			c14.465-0.281,28.928-0.261,43.41-0.02c5.879,0.086,9.771,3.458,12.041,9.012c7.826,19.243,17.402,37.551,29.422,54.521
			c3.201,4.518,6.465,9.036,11.113,12.216c5.142,3.521,9.057,2.354,11.476-3.374c1.535-3.632,2.207-7.544,2.553-11.434
			c1.146-13.383,1.297-26.743-0.713-40.079c-1.234-8.323-5.922-13.711-14.227-15.286c-4.238-0.803-3.607-2.38-1.555-4.799
			c3.564-4.172,6.916-6.769,13.598-6.769h50.111c7.889,1.557,9.641,5.101,10.721,13.039l0.043,55.663
			c-0.086,3.073,1.535,12.192,7.07,14.226c4.43,1.448,7.35-2.096,10.008-4.905c11.998-12.734,20.561-27.783,28.211-43.366
			c3.395-6.852,6.314-13.968,9.143-21.078c2.096-5.276,5.385-7.872,11.328-7.757l48.229,0.043c1.43,0,2.877,0.021,4.262,0.258
			c8.127,1.385,10.354,4.881,7.844,12.817c-3.955,12.451-11.65,22.827-19.174,33.251c-8.043,11.129-16.645,21.877-24.621,33.072
			C252.26,161.544,252.842,166.697,261.945,175.576L261.945,175.576z M261.945,175.576"/>
	</symbol>
</symbol></svg>